HIERARCHY
ROOT Hips
{
	OFFSET 0.000000 0.000000 0.000000
	CHANNELS 6 Xposition Yposition Zposition Zrotation Yrotation Xrotation
	JOINT Spine
	{
		OFFSET 0.000000 0.744707 0.000000
		CHANNELS 6 Xposition Yposition Zposition Zrotation Yrotation Xrotation
		JOINT Spine1
		{
			OFFSET 0.000000 2.032240 0.000000
			CHANNELS 6 Xposition Yposition Zposition Zrotation Yrotation Xrotation
			JOINT Neck
			{
				OFFSET 0.000000 2.213880 0.000000
				CHANNELS 6 Xposition Yposition Zposition Zrotation Yrotation Xrotation
				JOINT Head
				{
					OFFSET 0.000000 1.407680 0.181636
					CHANNELS 6 Xposition Yposition Zposition Zrotation Yrotation Xrotation
					End Site
					{
						OFFSET 0.000000 1.816356 0.000000
					}
				}
			}
			JOINT LeftShoulder
			{
				OFFSET 0.365767 1.787590 -0.048012
				CHANNELS 6 Xposition Yposition Zposition Zrotation Yrotation Xrotation
				JOINT LeftArm
				{
					OFFSET 1.305160 0.000000 0.000000
					CHANNELS 6 Xposition Yposition Zposition Zrotation Yrotation Xrotation
					JOINT LeftForeArm
					{
						OFFSET 2.559210 0.000000 0.000000
						CHANNELS 6 Xposition Yposition Zposition Zrotation Yrotation Xrotation
						JOINT LeftHand
						{
							OFFSET 2.378450 0.000000 0.000000
							CHANNELS 6 Xposition Yposition Zposition Zrotation Yrotation Xrotation
							End Site
							{
								OFFSET 1.362267 0.000000 0.000000
							}
						}
					}
				}
			}
			JOINT RightShoulder
			{
				OFFSET -0.360721 1.787590 -0.048012
				CHANNELS 6 Xposition Yposition Zposition Zrotation Yrotation Xrotation
				JOINT RightArm
				{
					OFFSET -1.305160 0.000000 0.000000
					CHANNELS 6 Xposition Yposition Zposition Zrotation Yrotation Xrotation
					JOINT RightForeArm
					{
						OFFSET -2.559210 0.000000 0.000000
						CHANNELS 6 Xposition Yposition Zposition Zrotation Yrotation Xrotation
						JOINT RightHand
						{
							OFFSET -2.378450 0.000000 0.000000
							CHANNELS 6 Xposition Yposition Zposition Zrotation Yrotation Xrotation
							End Site
							{
								OFFSET -1.362267 0.000000 0.000000
							}
						}
					}
				}
			}
		}
	}
	JOINT LeftUpLeg
	{
		OFFSET 0.908180 0.000000 0.000000
		CHANNELS 6 Xposition Yposition Zposition Zrotation Yrotation Xrotation
		JOINT LeftLeg
		{
			OFFSET 0.000000 -3.819490 -0.000004
			CHANNELS 6 Xposition Yposition Zposition Zrotation Yrotation Xrotation
			JOINT LeftFoot
			{
				OFFSET 0.000000 -4.004300 -0.000004
				CHANNELS 6 Xposition Yposition Zposition Zrotation Yrotation Xrotation
				JOINT LeftToeBase
				{
					OFFSET 0.000000 -0.590317 1.362270
					CHANNELS 6 Xposition Yposition Zposition Zrotation Yrotation Xrotation
					End Site
					{
						OFFSET 0.000000 0.000000 0.363271
					}
				}
			}
		}
	}
	JOINT RightUpLeg
	{
		OFFSET -0.908180 0.000000 0.000000
		CHANNELS 6 Xposition Yposition Zposition Zrotation Yrotation Xrotation
		JOINT RightLeg
		{
			OFFSET 0.000000 -3.819490 -0.000004
			CHANNELS 6 Xposition Yposition Zposition Zrotation Yrotation Xrotation
			JOINT RightFoot
			{
				OFFSET 0.000000 -4.004300 -0.000004
				CHANNELS 6 Xposition Yposition Zposition Zrotation Yrotation Xrotation
				JOINT RightToeBase
				{
					OFFSET 0.000000 -0.590317 1.362270
					CHANNELS 6 Xposition Yposition Zposition Zrotation Yrotation Xrotation
					End Site
					{
						OFFSET 0.000000 0.000000 0.363271
					}
				}
			}
		}
	}
}
MOTION
Frames: 6
Frame Time: 0.016667
-1.660254 7.952991 1.982771 -0.654488 -2.489318 7.416403 -0.000000 0.744707 -0.000000 -5.467858 9.402374 -22.481668 0.000000 2.032238 -0.000000 10.446173 1.503524 21.529788 0.000000 2.213882 0.000000 7.024020 -2.285293 0.190383 0.000000 1.407677 0.181635 -1.417424 -1.157386 7.399733 0.365767 1.787592 -0.048012 13.378893 1.384510 -2.752289 1.305159 -0.000003 -0.000000 -49.027040 -6.411362 11.922529 2.559212 0.000000 -0.000000 64.354452 -55.273849 -69.159729 2.378450 -0.000002 0.000001 9.111327 25.441758 -30.629888 -0.360721 1.787590 -0.048012 -8.030535 7.192575 -5.515291 -1.305160 -0.000001 0.000000 54.208213 35.434902 18.070092 -2.559210 -0.000000 0.000002 -120.947719 37.171638 -79.497610 -2.378448 -0.000001 0.000000 -55.326131 -15.698923 -9.822560 0.908180 -0.000001 -0.000000 0.909697 2.039087 -9.019462 0.000000 -3.819489 -0.000003 3.232609 4.421711 10.717759 0.000000 -4.004298 -0.000002 1.796693 22.151729 -4.067718 0.000000 -0.590316 1.362270 0.000001 -0.000006 -0.000000 -0.908180 -0.000002 0.000000 -18.198105 0.684423 -19.975660 -0.000000 -3.819488 -0.000002 10.721603 12.384423 22.528302 -0.000001 -4.004299 -0.000002 4.742645 -47.840452 -2.113924 -0.000002 -0.590318 1.362269 -0.000002 -0.000004 0.000004 
-1.642591 7.954000 1.976747 -0.675593 -2.640520 7.398017 -0.000000 0.744706 -0.000000 -5.321091 9.294632 -22.403374 0.000000 2.032236 0.000001 10.247308 1.503334 21.437406 0.000000 2.213881 0.000001 7.204320 -2.071746 0.433145 -0.000000 1.407681 0.181636 -1.637631 -0.850675 7.212549 0.365767 1.787593 -0.048012 13.310785 1.106253 -3.041122 1.305162 -0.000005 -0.000000 -48.699922 -7.287199 9.840003 2.559210 -0.000002 -0.000000 64.686925 -54.386057 -69.066333 2.378450 0.000000 0.000001 11.937084 26.739675 -30.175233 -0.360721 1.787592 -0.048012 -7.956362 7.104242 -5.326001 -1.305161 -0.000000 0.000000 54.832250 35.340485 18.208432 -2.559210 0.000000 -0.000000 -121.023739 37.605406 -79.610014 -2.378448 -0.000001 -0.000002 -55.526996 -15.408907 -9.346916 0.908180 -0.000001 -0.000000 0.810639 2.064218 -9.102797 0.000000 -3.819490 -0.000002 3.267031 4.736827 10.870719 0.000000 -4.004299 -0.000003 1.837951 21.950838 -4.111808 0.000000 -0.590316 1.362270 -0.000000 0.000002 0.000000 -0.908180 -0.000002 -0.000000 -18.168100 1.051588 -20.213859 0.000001 -3.819491 -0.000003 10.883252 11.781608 22.906696 -0.000002 -4.004299 -0.000002 4.852609 -47.898160 -3.083387 -0.000001 -0.590316 1.362270 0.000000 -0.000001 0.000009 
-1.626782 7.955174 1.970097 -0.708233 -2.766179 7.347424 0.000000 0.744703 0.000000 -5.174835 9.136315 -22.280197 -0.000000 2.032238 -0.000000 10.079939 1.478627 21.353144 -0.000000 2.213880 0.000000 7.329172 -1.825180 0.686082 0.000000 1.407677 0.181636 -1.817911 -0.525036 6.995742 0.365767 1.787587 -0.048012 13.266942 0.816372 -3.429885 1.305160 0.000001 -0.000000 -48.327543 -7.993664 8.109093 2.559211 0.000000 -0.000000 65.171131 -53.350372 -69.114049 2.378449 0.000000 0.000002 14.774223 28.039805 -29.799658 -0.360721 1.787593 -0.048012 -7.918274 7.063332 -5.194714 -1.305160 0.000001 0.000000 55.461802 35.146914 18.661947 -2.559211 0.000001 0.000001 -120.973210 37.847881 -79.398668 -2.378451 -0.000004 0.000001 -55.823700 -15.210013 -8.892613 0.908180 -0.000003 0.000000 0.860414 1.953375 -9.185682 0.000000 -3.819492 -0.000004 3.046252 4.743262 11.092076 0.000000 -4.004301 -0.000002 1.955020 22.170570 -4.179910 0.000000 -0.590316 1.362270 -0.000002 -0.000008 0.000002 -0.908180 -0.000002 -0.000000 -18.109430 1.466626 -20.389962 0.000001 -3.819489 -0.000003 10.963750 11.082455 23.219774 -0.000000 -4.004302 -0.000002 5.164514 -47.817468 -3.976257 0.000000 -0.590316 1.362270 0.000000 0.000006 0.000004 
-1.611688 7.956424 1.964399 -0.743126 -2.876419 7.305693 0.000000 0.744706 -0.000000 -5.010608 8.947215 -22.173803 0.000000 2.032242 0.000002 9.894479 1.446276 21.265727 0.000000 2.213880 0.000002 7.487451 -1.565299 0.960054 -0.000000 1.407683 0.181636 -2.080657 -0.163951 6.783151 0.365767 1.787589 -0.048012 13.219290 0.576848 -3.716416 1.305160 -0.000002 -0.000000 -47.768021 -8.774090 6.314906 2.559211 -0.000000 -0.000000 65.342425 -52.528786 -69.013816 2.378449 0.000000 0.000000 17.778158 29.356225 -29.202928 -0.360721 1.787591 -0.048012 -7.868836 6.996046 -4.975815 -1.305160 -0.000002 0.000000 56.043345 35.038666 19.071271 -2.559212 -0.000003 -0.000000 -120.861782 38.181526 -79.281940 -2.378448 -0.000001 -0.000000 -56.154175 -14.900674 -8.520796 0.908180 -0.000003 -0.000000 0.874012 1.971601 -9.280152 0.000000 -3.819491 -0.000004 2.881707 4.727647 11.308747 0.000000 -4.004300 -0.000003 2.028762 22.292583 -4.241887 0.000000 -0.590316 1.362270 -0.000001 -0.000003 0.000002 -0.908180 -0.000000 -0.000000 -18.043473 1.873172 -20.519261 -0.000001 -3.819488 -0.000003 11.113426 10.817565 23.508492 -0.000001 -4.004302 -0.000003 5.229093 -47.778345 -4.574788 -0.000000 -0.590316 1.362271 0.000000 -0.000000 0.000005 
-1.597036 7.957078 1.959504 -0.772791 -2.986764 7.234446 -0.000000 0.744704 0.000000 -4.857154 8.740649 -22.013300 -0.000000 2.032238 0.000003 9.737462 1.406336 21.134192 -0.000000 2.213879 0.000000 7.647858 -1.288903 1.234757 0.000000 1.407676 0.181637 -2.384506 0.221859 6.602145 0.365767 1.787590 -0.048011 13.216410 0.321144 -4.052049 1.305161 -0.000002 -0.000000 -47.137526 -9.398557 4.631998 2.559211 0.000001 -0.000000 65.356291 -51.774265 -68.656577 2.378449 0.000001 0.000002 20.683015 30.530293 -28.372934 -0.360721 1.787589 -0.048012 -7.788934 6.883887 -4.738966 -1.305160 -0.000002 -0.000000 56.579170 34.913547 19.715939 -2.559212 -0.000001 -0.000000 -120.676260 38.458572 -78.899313 -2.378448 -0.000003 -0.000002 -56.325759 -14.768466 -7.975509 0.908180 -0.000004 -0.000000 0.828998 2.134096 -9.332922 0.000000 -3.819492 -0.000003 2.837543 4.857526 11.500727 0.000000 -4.004297 -0.000003 2.097278 22.122616 -4.314137 0.000000 -0.590316 1.362270 -0.000000 0.000010 0.000000 -0.908180 -0.000005 0.000000 -17.969393 2.236945 -20.610678 0.000001 -3.819489 -0.000002 11.374107 10.576792 23.836064 -0.000000 -4.004302 -0.000003 5.274114 -47.776992 -5.285181 -0.000001 -0.590317 1.362269 0.000002 0.000004 0.000002 
-1.583374 7.957635 1.955322 -0.790518 -3.079297 7.158839 0.000000 0.744702 -0.000000 -4.723299 8.489643 -21.874671 0.000000 2.032237 0.000000 9.616557 1.342579 21.043348 0.000000 2.213885 0.000000 7.740618 -0.987649 1.496654 -0.000000 1.407679 0.181639 -2.657261 0.617170 6.423956 0.365767 1.787592 -0.048012 13.187935 0.081882 -4.379186 1.305160 -0.000001 -0.000000 -46.399111 -9.958695 3.314885 2.559209 -0.000004 -0.000000 65.421731 -50.822478 -68.246492 2.378448 -0.000000 0.000001 24.077315 31.585172 -27.407816 -0.360721 1.787591 -0.048012 -7.780726 6.850607 -4.552867 -1.305161 0.000002 -0.000000 57.062040 34.792017 20.443651 -2.559211 -0.000002 0.000001 -120.365883 38.618371 -78.325659 -2.378453 -0.000000 -0.000001 -56.808196 -14.565556 -7.525242 0.908180 -0.000005 -0.000000 0.736113 2.341188 -9.399097 0.000000 -3.819489 -0.000002 2.893351 5.033102 11.717734 0.000000 -4.004299 -0.000002 2.089174 21.837156 -4.395849 -0.000000 -0.590317 1.362270 0.000001 -0.000002 0.000005 -0.908180 -0.000006 0.000000 -17.901835 2.599411 -20.678685 0.000001 -3.819489 -0.000002 11.576938 10.615929 24.074064 -0.000001 -4.004303 -0.000002 4.749001 -47.759435 -5.400719 0.000001 -0.590317 1.362269 0.000001 0.000001 0.000003 
